<svg width="174" height="50" viewBox="0 0 174 50" fill="none" xmlns="http://www.w3.org/2000/svg">
<path d="M172.115 44.2337C172.115 46.8982 169.912 49.0566 167.187 49.0566H5.89646C3.17248 49.0566 0.961426 46.8982 0.961426 44.2337V5.77256C0.961426 3.10926 3.17248 0.943359 5.89646 0.943359H167.185C169.912 0.943359 172.114 3.10926 172.114 5.77256L172.115 44.2337Z" fill="black"/>
<path d="M166.667 1.00156C169.635 1.00156 172.05 3.35625 172.05 6.25V43.75C172.05 46.6438 169.635 48.9984 166.667 48.9984H6.41026C3.44231 48.9984 1.02724 46.6438 1.02724 43.75V6.25C1.02724 3.35625 3.44231 1.00156 6.41026 1.00156H166.667ZM166.667 3.8147e-06H6.41026C2.88622 3.8147e-06 0 2.81407 0 6.25V43.75C0 47.1859 2.88622 50 6.41026 50H166.667C170.191 50 173.077 47.1859 173.077 43.75V6.25C173.077 2.81407 170.191 3.8147e-06 166.667 3.8147e-06Z" fill="#A6A6A6"/>
<path d="M38.6257 24.7302C38.5885 20.7015 42.009 18.7415 42.1654 18.6502C40.2282 15.8965 37.2257 15.5202 36.1705 15.4902C33.6487 15.2315 31.2026 16.9615 29.918 16.9615C28.6077 16.9615 26.6295 15.5152 24.4975 15.5577C21.7539 15.599 19.1872 17.1477 17.7795 19.5527C14.8744 24.4565 17.0411 31.6627 19.8244 35.6265C21.2167 37.5677 22.8436 39.7352 24.9731 39.659C27.0564 39.5752 27.8346 38.364 30.3487 38.364C32.8398 38.364 33.5705 39.659 35.7423 39.6102C37.9782 39.5752 39.3859 37.6602 40.7295 35.7015C42.3385 33.4765 42.9846 31.2852 43.0103 31.1727C42.9577 31.1552 38.668 29.559 38.6257 24.7302Z" fill="white"/>
<path d="M34.5231 12.8827C35.6436 11.5165 36.4103 9.65773 36.1975 7.77148C34.5757 7.84148 32.5475 8.86523 31.3795 10.2015C30.3462 11.379 29.4231 13.309 29.6616 15.124C31.4834 15.2565 33.3539 14.2277 34.5231 12.8827Z" fill="white"/>
<path d="M62.8846 12.5114C62.8846 13.9826 62.4321 15.0901 61.5282 15.8339C60.691 16.5201 59.5013 16.8639 57.9603 16.8639C57.1962 16.8639 56.5423 16.8314 55.9949 16.7664V8.72762C56.709 8.61512 57.4782 8.55762 58.309 8.55762C59.7769 8.55762 60.8833 8.86887 61.6295 9.49137C62.4654 10.1951 62.8846 11.2014 62.8846 12.5114ZM61.468 12.5476C61.468 11.5939 61.209 10.8626 60.691 10.3526C60.1731 9.84387 59.4167 9.58887 58.4205 9.58887C57.9974 9.58887 57.6372 9.61637 57.3385 9.67387V15.7851C57.5038 15.8101 57.8064 15.8214 58.2462 15.8214C59.2744 15.8214 60.068 15.5426 60.6269 14.9851C61.1859 14.4276 61.468 13.6151 61.468 12.5476Z" fill="white"/>
<path d="M70.396 13.7968C70.396 14.703 70.1307 15.4455 69.5999 16.028C69.0435 16.6268 68.3063 16.9255 67.3858 16.9255C66.4986 16.9255 65.7922 16.6393 65.2653 16.0643C64.7396 15.4905 64.4768 14.7668 64.4768 13.8943C64.4768 12.9818 64.7473 12.233 65.2909 11.6518C65.8345 11.0705 66.5653 10.7793 67.4858 10.7793C68.373 10.7793 69.0858 11.0655 69.6255 11.6393C70.1383 12.1968 70.396 12.9168 70.396 13.7968ZM69.0024 13.8393C69.0024 13.2955 68.8819 12.8293 68.6422 12.4405C68.3601 11.9705 67.9589 11.7355 67.4371 11.7355C66.8973 11.7355 66.4871 11.9705 66.205 12.4405C65.964 12.8293 65.8448 13.303 65.8448 13.863C65.8448 14.4068 65.9653 14.873 66.205 15.2618C66.496 15.7318 66.9012 15.9668 67.4242 15.9668C67.9371 15.9668 68.3396 15.728 68.6294 15.2493C68.8781 14.853 69.0024 14.383 69.0024 13.8393Z" fill="white"/>
<path d="M80.4678 10.8994L78.5768 16.7919H77.346L76.5627 14.2332C76.364 13.5944 76.2024 12.9594 76.0768 12.3294H76.0524C75.9358 12.9769 75.7742 13.6107 75.5666 14.2332L74.7345 16.7919H73.4896L71.7114 10.8994H73.0922L73.7755 13.7007C73.9409 14.3632 74.0768 14.9944 74.1858 15.5919H74.2101C74.3101 15.0994 74.4755 14.4719 74.7089 13.7132L75.5666 10.9007H76.6614L77.4832 13.6532C77.6819 14.3244 77.8435 14.9707 77.9678 15.5932H78.005C78.096 14.9869 78.2332 14.3407 78.4153 13.6532L79.1486 10.9007H80.4678V10.8994Z" fill="white"/>
<path d="M87.4334 16.7916H86.0898V13.4166C86.0898 12.3766 85.6847 11.8566 84.8719 11.8566C84.4732 11.8566 84.1514 11.9991 83.9014 12.2854C83.6539 12.5716 83.5283 12.9091 83.5283 13.2954V16.7904H82.1847V12.5829C82.1847 12.0654 82.168 11.5041 82.136 10.8966H83.3167L83.3796 11.8179H83.4168C83.5732 11.5316 83.8065 11.2954 84.1129 11.1066C84.477 10.8866 84.8847 10.7754 85.3308 10.7754C85.8949 10.7754 86.3642 10.9529 86.7373 11.3091C87.2014 11.7454 87.4334 12.3966 87.4334 13.2616V16.7916Z" fill="white"/>
<path d="M91.1384 16.7916H89.7961V8.19531H91.1384V16.7916Z" fill="white"/>
<path d="M99.0486 13.7968C99.0486 14.703 98.7832 15.4455 98.2525 16.028C97.6961 16.6268 96.9576 16.9255 96.0384 16.9255C95.1499 16.9255 94.4435 16.6393 93.9179 16.0643C93.3922 15.4905 93.1294 14.7668 93.1294 13.8943C93.1294 12.9818 93.3999 12.233 93.9435 11.6518C94.4871 11.0705 95.2179 10.7793 96.1371 10.7793C97.0255 10.7793 97.7371 11.0655 98.2781 11.6393C98.7909 12.1968 99.0486 12.9168 99.0486 13.7968ZM97.6538 13.8393C97.6538 13.2955 97.5332 12.8293 97.2935 12.4405C97.0127 11.9705 96.6102 11.7355 96.0896 11.7355C95.5486 11.7355 95.1384 11.9705 94.8576 12.4405C94.6166 12.8293 94.4973 13.303 94.4973 13.863C94.4973 14.4068 94.6179 14.873 94.8576 15.2618C95.1486 15.7318 95.5538 15.9668 96.0768 15.9668C96.5897 15.9668 96.9909 15.728 97.2807 15.2493C97.5307 14.853 97.6538 14.383 97.6538 13.8393Z" fill="white"/>
<path d="M105.551 16.7918H104.345L104.245 16.113H104.208C103.795 16.6543 103.207 16.9255 102.442 16.9255C101.872 16.9255 101.41 16.7468 101.063 16.3918C100.748 16.0693 100.59 15.668 100.59 15.1918C100.59 14.4718 100.898 13.923 101.517 13.543C102.135 13.163 103.004 12.9768 104.123 12.9855V12.8755C104.123 12.0993 103.705 11.7118 102.868 11.7118C102.272 11.7118 101.746 11.858 101.292 12.148L101.019 11.288C101.581 10.9493 102.274 10.7793 103.092 10.7793C104.672 10.7793 105.464 11.5918 105.464 13.2168V15.3868C105.464 15.9755 105.494 16.4443 105.551 16.7918ZM104.157 14.7668V13.858C102.674 13.833 101.933 14.2293 101.933 15.0455C101.933 15.353 102.018 15.583 102.191 15.7368C102.364 15.8905 102.585 15.9668 102.848 15.9668C103.142 15.9668 103.418 15.8755 103.669 15.6943C103.922 15.5118 104.077 15.2805 104.135 14.9968C104.149 14.933 104.157 14.8555 104.157 14.7668Z" fill="white"/>
<path d="M113.186 16.7916H111.994L111.931 15.8453H111.894C111.513 16.5653 110.864 16.9253 109.953 16.9253C109.224 16.9253 108.618 16.6466 108.137 16.0891C107.656 15.5316 107.417 14.8078 107.417 13.9191C107.417 12.9653 107.677 12.1928 108.2 11.6028C108.706 11.0528 109.327 10.7778 110.065 10.7778C110.877 10.7778 111.445 11.0441 111.768 11.5778H111.794V8.19531H113.139V15.2041C113.139 15.7778 113.154 16.3066 113.186 16.7916ZM111.794 14.3066V13.3241C111.794 13.1541 111.781 13.0166 111.756 12.9116C111.681 12.5966 111.518 12.3316 111.271 12.1178C111.021 11.9041 110.719 11.7966 110.372 11.7966C109.871 11.7966 109.478 11.9903 109.19 12.3791C108.904 12.7678 108.759 13.2641 108.759 13.8703C108.759 14.4528 108.896 14.9253 109.172 15.2891C109.463 15.6766 109.855 15.8703 110.346 15.8703C110.787 15.8703 111.14 15.7091 111.408 15.3853C111.667 15.0866 111.794 14.7266 111.794 14.3066Z" fill="white"/>
<path d="M124.677 13.7968C124.677 14.703 124.412 15.4455 123.881 16.028C123.324 16.6268 122.589 16.9255 121.667 16.9255C120.781 16.9255 120.074 16.6393 119.546 16.0643C119.021 15.4905 118.758 14.7668 118.758 13.8943C118.758 12.9818 119.028 12.233 119.572 11.6518C120.116 11.0705 120.846 10.7793 121.768 10.7793C122.654 10.7793 123.368 11.0655 123.907 11.6393C124.419 12.1968 124.677 12.9168 124.677 13.7968ZM123.285 13.8393C123.285 13.2955 123.164 12.8293 122.924 12.4405C122.641 11.9705 122.241 11.7355 121.718 11.7355C121.18 11.7355 120.769 11.9705 120.486 12.4405C120.245 12.8293 120.126 13.303 120.126 13.863C120.126 14.4068 120.246 14.873 120.486 15.2618C120.777 15.7318 121.182 15.9668 121.705 15.9668C122.218 15.9668 122.622 15.728 122.912 15.2493C123.159 14.853 123.285 14.383 123.285 13.8393Z" fill="white"/>
<path d="M131.901 16.7916H130.559V13.4166C130.559 12.3766 130.154 11.8566 129.34 11.8566C128.941 11.8566 128.619 11.9991 128.371 12.2854C128.122 12.5716 127.998 12.9091 127.998 13.2954V16.7904H126.653V12.5829C126.653 12.0654 126.637 11.5041 126.605 10.8966H127.785L127.848 11.8179H127.885C128.042 11.5316 128.276 11.2954 128.581 11.1066C128.946 10.8866 129.353 10.7754 129.8 10.7754C130.363 10.7754 130.832 10.9529 131.205 11.3091C131.671 11.7454 131.901 12.3966 131.901 13.2616V16.7916Z" fill="white"/>
<path d="M140.944 11.8804H139.464V14.7429C139.464 15.4704 139.727 15.8341 140.248 15.8341C140.489 15.8341 140.689 15.8141 140.846 15.7729L140.881 16.7666C140.616 16.8641 140.267 16.9129 139.837 16.9129C139.307 16.9129 138.894 16.7554 138.595 16.4404C138.295 16.1254 138.146 15.5954 138.146 14.8516V11.8804H137.263V10.8991H138.146V9.81914L139.463 9.43164V10.8979H140.942V11.8804H140.944Z" fill="white"/>
<path d="M148.056 16.7916H146.711V13.4416C146.711 12.3853 146.306 11.8566 145.495 11.8566C144.872 11.8566 144.446 12.1628 144.213 12.7753C144.173 12.9041 144.15 13.0616 144.15 13.2466V16.7903H142.808V8.19531H144.15V11.7466H144.176C144.599 11.1003 145.205 10.7778 145.991 10.7778C146.547 10.7778 147.008 10.9553 147.373 11.3116C147.828 11.7553 148.056 12.4153 148.056 13.2878V16.7916Z" fill="white"/>
<path d="M155.394 13.5663C155.394 13.8013 155.376 13.9988 155.344 14.1601H151.314C151.332 14.7426 151.524 15.1863 151.897 15.4938C152.238 15.7688 152.678 15.9063 153.217 15.9063C153.813 15.9063 154.356 15.8138 154.846 15.6276L155.056 16.5376C154.483 16.7801 153.809 16.9013 153.028 16.9013C152.092 16.9013 151.355 16.6326 150.822 16.0951C150.286 15.5576 150.021 14.8363 150.021 13.9313C150.021 13.0426 150.268 12.3026 150.767 11.7126C151.287 11.0826 151.991 10.7676 152.879 10.7676C153.749 10.7676 154.409 11.0826 154.855 11.7126C155.215 12.2126 155.394 12.8313 155.394 13.5663ZM154.112 13.2276C154.122 12.8388 154.033 12.5038 153.851 12.2213C153.618 11.8576 153.263 11.6751 152.782 11.6751C152.344 11.6751 151.986 11.8526 151.713 12.2088C151.49 12.4926 151.358 12.8313 151.314 13.2276H154.112Z" fill="white"/>
<path d="M68.7757 39.3801H65.8641L64.2693 34.4939H58.7257L57.2064 39.3801H54.3718L59.8641 22.7451H63.2564L68.7757 39.3801ZM63.7885 32.4439L62.3462 28.1001C62.1936 27.6564 61.9077 26.6114 61.4859 24.9664H61.4346C61.2667 25.6739 60.9962 26.7189 60.6244 28.1001L59.2077 32.4439H63.7885Z" fill="white"/>
<path d="M82.8999 33.2349C82.8999 35.2749 82.3345 36.8874 81.2038 38.0712C80.1909 39.1249 78.9333 39.6512 77.432 39.6512C75.8115 39.6512 74.6474 39.0837 73.9384 37.9487H73.8871V44.2674H71.1538V31.3337C71.1538 30.0512 71.1192 28.7349 71.0525 27.3849H73.4563L73.6089 29.2862H73.6602C74.5717 27.8537 75.9551 27.1387 77.8115 27.1387C79.2627 27.1387 80.4743 27.6974 81.4435 28.8162C82.4153 29.9362 82.8999 31.4087 82.8999 33.2349ZM80.1153 33.3324C80.1153 32.1649 79.8461 31.2024 79.3051 30.4449C78.714 29.6549 77.9204 29.2599 76.9256 29.2599C76.2512 29.2599 75.6384 29.4799 75.0909 29.9137C74.5422 30.3512 74.1833 30.9224 74.0153 31.6299C73.9307 31.9599 73.8884 32.2299 73.8884 32.4424V34.4424C73.8884 35.3149 74.1627 36.0512 74.7115 36.6524C75.2602 37.2537 75.973 37.5537 76.8499 37.5537C77.8794 37.5537 78.6807 37.1662 79.2538 36.3937C79.8281 35.6199 80.1153 34.5999 80.1153 33.3324Z" fill="white"/>
<path d="M97.05 33.2349C97.05 35.2749 96.4846 36.8874 95.3526 38.0712C94.341 39.1249 93.0833 39.6512 91.5821 39.6512C89.9615 39.6512 88.7974 39.0837 88.0898 37.9487H88.0385V44.2674H85.3051V31.3337C85.3051 30.0512 85.2705 28.7349 85.2039 27.3849H87.6077L87.7603 29.2862H87.8115C88.7218 27.8537 90.1051 27.1387 91.9628 27.1387C93.4128 27.1387 94.6244 27.6974 95.5962 28.8162C96.5641 29.9362 97.05 31.4087 97.05 33.2349ZM94.2654 33.3324C94.2654 32.1649 93.9949 31.2024 93.4539 30.4449C92.8628 29.6549 92.0718 29.2599 91.0757 29.2599C90.4 29.2599 89.7885 29.4799 89.2398 29.9137C88.691 30.3512 88.3333 30.9224 88.1654 31.6299C88.0821 31.9599 88.0385 32.2299 88.0385 32.4424V34.4424C88.0385 35.3149 88.3128 36.0512 88.859 36.6524C89.4077 37.2524 90.1205 37.5537 91 37.5537C92.0295 37.5537 92.8308 37.1662 93.4039 36.3937C93.9782 35.6199 94.2654 34.5999 94.2654 33.3324Z" fill="white"/>
<path d="M112.871 34.7147C112.871 36.1297 112.367 37.281 111.355 38.1697C110.244 39.141 108.696 39.626 106.708 39.626C104.872 39.626 103.4 39.281 102.286 38.5897L102.919 36.3685C104.119 37.076 105.436 37.431 106.871 37.431C107.9 37.431 108.701 37.2035 109.277 36.751C109.85 36.2985 110.136 35.691 110.136 34.9335C110.136 34.2585 109.9 33.6897 109.427 33.2285C108.956 32.7672 108.171 32.3385 107.073 31.9422C104.086 30.856 102.594 29.2647 102.594 27.1722C102.594 25.8047 103.117 24.6835 104.164 23.811C105.208 22.9372 106.6 22.501 108.341 22.501C109.894 22.501 111.183 22.7647 112.213 23.291L111.529 25.4635C110.568 24.9535 109.481 24.6985 108.264 24.6985C107.303 24.6985 106.551 24.9297 106.013 25.3897C105.558 25.801 105.329 26.3022 105.329 26.896C105.329 27.5535 105.59 28.0972 106.113 28.5247C106.568 28.9197 107.395 29.3472 108.595 29.8085C110.063 30.3847 111.141 31.0585 111.835 31.831C112.526 32.601 112.871 33.5647 112.871 34.7147Z" fill="white"/>
<path d="M121.908 29.3843H118.895V35.208C118.895 36.6893 119.426 37.4293 120.49 37.4293C120.978 37.4293 121.383 37.388 121.704 37.3055L121.78 39.3293C121.241 39.5255 120.532 39.6243 119.654 39.6243C118.574 39.6243 117.731 39.303 117.122 38.6618C116.516 38.0193 116.21 36.9418 116.21 35.428V29.3818H114.416V27.3818H116.21V25.1855L118.895 24.3955V27.3818H121.908V29.3843Z" fill="white"/>
<path d="M135.501 33.2834C135.501 35.1271 134.96 36.6409 133.881 37.8246C132.749 39.0434 131.246 39.6509 129.373 39.6509C127.568 39.6509 126.131 39.0671 125.059 37.8996C123.987 36.7321 123.451 35.2584 123.451 33.4821C123.451 31.6234 124.003 30.1009 125.109 28.9171C126.213 27.7321 127.703 27.1396 129.576 27.1396C131.381 27.1396 132.833 27.7234 133.93 28.8921C134.978 30.0259 135.501 31.4896 135.501 33.2834ZM132.666 33.3696C132.666 32.2634 132.423 31.3146 131.932 30.5234C131.359 29.5659 130.54 29.0884 129.478 29.0884C128.38 29.0884 127.545 29.5671 126.972 30.5234C126.481 31.3159 126.239 32.2796 126.239 33.4196C126.239 34.5259 126.481 35.4746 126.972 36.2646C127.563 37.2221 128.389 37.6996 129.454 37.6996C130.498 37.6996 131.317 37.2121 131.908 36.2396C132.412 35.4334 132.666 34.4746 132.666 33.3696Z" fill="white"/>
<path d="M144.386 29.7287C144.116 29.6799 143.827 29.6549 143.524 29.6549C142.563 29.6549 141.819 30.0087 141.296 30.7174C140.841 31.3424 140.613 32.1324 140.613 33.0862V39.3799H137.881L137.907 31.1624C137.907 29.7799 137.872 28.5212 137.804 27.3862H140.185L140.285 29.6812H140.36C140.649 28.8924 141.104 28.2574 141.727 27.7812C142.336 27.3524 142.994 27.1387 143.703 27.1387C143.955 27.1387 144.183 27.1562 144.386 27.1874V29.7287Z" fill="white"/>
<path d="M156.61 32.815C156.61 33.2925 156.578 33.695 156.51 34.0237H148.31C148.342 35.2087 148.739 36.115 149.5 36.74C150.191 37.2987 151.085 37.5787 152.182 37.5787C153.396 37.5787 154.504 37.39 155.5 37.0112L155.928 38.8612C154.764 39.3562 153.39 39.6025 151.804 39.6025C149.896 39.6025 148.399 39.055 147.309 37.9612C146.222 36.8675 145.677 35.3987 145.677 33.5562C145.677 31.7475 146.183 30.2412 147.198 29.04C148.259 27.7575 149.694 27.1162 151.499 27.1162C153.272 27.1162 154.614 27.7575 155.526 29.04C156.248 30.0587 156.61 31.3187 156.61 32.815ZM154.004 32.1237C154.022 31.3337 153.844 30.6512 153.473 30.075C153 29.3337 152.273 28.9637 151.295 28.9637C150.401 28.9637 149.674 29.325 149.119 30.05C148.664 30.6262 148.394 31.3175 148.31 32.1225H154.004V32.1237Z" fill="white"/>
</svg>
