<svg width="174" height="50" viewBox="0 0 174 50" fill="none" xmlns="http://www.w3.org/2000/svg">
<path d="M166.744 50H6.48716C2.96312 50 0.0769043 47.1859 0.0769043 43.75V6.25C0.0769043 2.81406 2.96312 0 6.48716 0H166.744C170.268 0 173.154 2.81406 173.154 6.25V43.75C173.154 47.1859 170.268 50 166.744 50Z" fill="black"/>
<path d="M166.744 1.00156C169.712 1.00156 172.127 3.35625 172.127 6.25V43.75C172.127 46.6438 169.712 48.9984 166.744 48.9984H6.48716C3.51921 48.9984 1.10415 46.6438 1.10415 43.75V6.25C1.10415 3.35625 3.51921 1.00156 6.48716 1.00156H166.744ZM166.744 0H6.48716C2.96312 0 0.0769043 2.81406 0.0769043 6.25V43.75C0.0769043 47.1859 2.96312 50 6.48716 50H166.744C170.268 50 173.154 47.1859 173.154 43.75V6.25C173.154 2.81406 170.268 0 166.744 0Z" fill="#A6A6A6"/>
<path d="M13.4551 9.42324C13.0785 9.80761 12.8606 10.4061 12.8606 11.1811V38.8248C12.8606 39.5998 13.0785 40.1982 13.4551 40.5826L13.5481 40.667L29.4359 25.1826V24.817L13.5481 9.33262L13.4551 9.42324Z" fill="url(#paint0_linear_45_12448)"/>
<path d="M34.7259 30.3467L29.4358 25.1826V24.817L34.7323 19.6529L34.8509 19.7201L41.1233 23.1998C42.9134 24.1873 42.9134 25.8123 41.1233 26.8061L34.8509 30.2795L34.7259 30.3467Z" fill="url(#paint1_linear_45_12448)"/>
<path d="M34.8509 30.2796L29.4358 24.9999L13.4551 40.5827C14.0496 41.1921 15.0192 41.2655 16.1217 40.6562L34.8509 30.2796Z" fill="url(#paint2_linear_45_12448)"/>
<path d="M34.8509 19.7203L16.1217 9.34376C15.0192 8.74063 14.0496 8.81407 13.4551 9.42344L29.4358 25L34.8509 19.7203Z" fill="url(#paint3_linear_45_12448)"/>
<path d="M60.8687 12.8045C60.8687 13.8482 60.5481 14.6842 59.9167 15.3076C59.1908 16.0467 58.2453 16.4186 57.0866 16.4186C55.9792 16.4186 55.0337 16.0404 54.2581 15.2951C53.4808 14.5389 53.093 13.6107 53.093 12.4998C53.093 11.3889 53.4808 10.4607 54.2581 9.71074C55.0337 8.95918 55.9792 8.58105 57.0866 8.58105C57.6379 8.58105 58.1635 8.69199 58.6651 8.89824C59.1651 9.10605 59.5722 9.3873 59.8671 9.73418L59.1972 10.3936C58.6828 9.80137 57.9824 9.50918 57.0866 9.50918C56.2789 9.50918 55.5786 9.78418 54.984 10.3389C54.3959 10.8951 54.101 11.6154 54.101 12.4998C54.101 13.3842 54.3959 14.1107 54.984 14.667C55.5786 15.2154 56.2789 15.4967 57.0866 15.4967C57.944 15.4967 58.6651 15.2154 59.234 14.6607C59.609 14.2936 59.8222 13.7873 59.8783 13.1404H57.0866V12.2373H60.811C60.8558 12.4326 60.8687 12.6217 60.8687 12.8045Z" fill="white" stroke="white" stroke-width="0.16" stroke-miterlimit="10"/>
<path d="M66.7774 9.67324H63.279V12.0482H66.4328V12.9514H63.279V15.3264H66.7774V16.2467H62.2886V8.75293H66.7774V9.67324Z" fill="white" stroke="white" stroke-width="0.16" stroke-miterlimit="10"/>
<path d="M70.9472 16.2467H69.9569V9.67324H67.811V8.75293H73.0947V9.67324H70.9472V16.2467Z" fill="white" stroke="white" stroke-width="0.16" stroke-miterlimit="10"/>
<path d="M76.9185 16.2467V8.75293H77.9072V16.2467H76.9185Z" fill="white" stroke="white" stroke-width="0.16" stroke-miterlimit="10"/>
<path d="M82.29 16.2467H81.3076V9.67324H79.1538V8.75293H84.4439V9.67324H82.29V16.2467Z" fill="white" stroke="white" stroke-width="0.16" stroke-miterlimit="10"/>
<path d="M94.4471 15.2826C93.6891 16.0404 92.75 16.4186 91.6298 16.4186C90.5032 16.4186 89.5641 16.0404 88.8061 15.2826C88.0497 14.5264 87.6731 13.5982 87.6731 12.4998C87.6731 11.4014 88.0497 10.4732 88.8061 9.71699C89.5641 8.95918 90.5032 8.58105 91.6298 8.58105C92.7436 8.58105 93.6827 8.95918 94.4407 9.72324C95.2036 10.4857 95.5802 11.4076 95.5802 12.4998C95.5802 13.5982 95.2035 14.5264 94.4471 15.2826ZM89.5385 14.6545C90.109 15.2154 90.8029 15.4967 91.6298 15.4967C92.4503 15.4967 93.1507 15.2154 93.7148 14.6545C94.2837 14.0936 94.5721 13.3732 94.5721 12.4998C94.5721 11.6264 94.2837 10.9061 93.7148 10.3451C93.1507 9.78418 92.4503 9.50293 91.6298 9.50293C90.8029 9.50293 90.109 9.78418 89.5385 10.3451C88.9696 10.9061 88.6811 11.6264 88.6811 12.4998C88.6811 13.3732 88.9696 14.0936 89.5385 14.6545Z" fill="white" stroke="white" stroke-width="0.16" stroke-miterlimit="10"/>
<path d="M96.9697 16.2467V8.75293H98.1716L101.909 14.5811H101.952L101.909 13.1404V8.75293H102.898V16.2467H101.866L97.9521 10.1311H97.9088L97.9521 11.5779V16.2467H96.9697Z" fill="white" stroke="white" stroke-width="0.16" stroke-miterlimit="10"/>
<path d="M87.4295 27.1904C84.4183 27.1904 81.9584 29.4248 81.9584 32.5076C81.9584 35.5654 84.4183 37.8232 87.4295 37.8232C90.4472 37.8232 92.9071 35.5654 92.9071 32.5076C92.9071 29.4248 90.4472 27.1904 87.4295 27.1904ZM87.4295 35.7295C85.7773 35.7295 84.3558 34.3998 84.3558 32.5076C84.3558 30.5904 85.7773 29.2842 87.4295 29.2842C89.0818 29.2842 90.5097 30.5904 90.5097 32.5076C90.5097 34.3998 89.0818 35.7295 87.4295 35.7295ZM75.4921 27.1904C72.4744 27.1904 70.0209 29.4248 70.0209 32.5076C70.0209 35.5654 72.4744 37.8232 75.4921 37.8232C78.5081 37.8232 80.9632 35.5654 80.9632 32.5076C80.9632 29.4248 78.5081 27.1904 75.4921 27.1904ZM75.4921 35.7295C73.8382 35.7295 72.4119 34.3998 72.4119 32.5076C72.4119 30.5904 73.8382 29.2842 75.4921 29.2842C77.1443 29.2842 78.5658 30.5904 78.5658 32.5076C78.5658 34.3998 77.1443 35.7295 75.4921 35.7295ZM61.2869 28.8201V31.0795H66.8206C66.6587 32.342 66.226 33.2701 65.5626 33.917C64.7549 34.6982 63.4969 35.5654 61.2869 35.5654C57.8815 35.5654 55.2148 32.8857 55.2148 29.5654C55.2148 26.2451 57.8815 23.5654 61.2869 23.5654C63.1283 23.5654 64.468 24.267 65.4568 25.1764L67.0898 23.5842C65.7068 22.2967 63.8671 21.3076 61.2869 21.3076C56.6171 21.3076 52.6924 25.0123 52.6924 29.5654C52.6924 34.1186 56.6171 37.8232 61.2869 37.8232C63.811 37.8232 65.7068 37.017 67.1972 35.5045C68.7244 34.0154 69.2004 31.9217 69.2004 30.2311C69.2004 29.7061 69.1555 29.2232 69.0754 28.8201H61.2869ZM119.373 30.5717C118.923 29.3826 117.534 27.1904 114.704 27.1904C111.899 27.1904 109.564 29.3451 109.564 32.5076C109.564 35.4857 111.875 37.8232 114.973 37.8232C117.478 37.8232 118.923 36.3342 119.518 35.467L117.659 34.2592C117.039 35.1436 116.194 35.7295 114.973 35.7295C113.76 35.7295 112.889 35.1873 112.332 34.1186L119.625 31.1764L119.373 30.5717ZM111.938 32.342C111.875 30.292 113.571 29.242 114.785 29.242C115.737 29.242 116.545 29.7061 116.814 30.3701L111.938 32.342ZM106.01 37.4998H108.407V21.8748H106.01V37.4998ZM102.083 28.3748H102.003C101.465 27.7529 100.438 27.1904 99.1363 27.1904C96.4055 27.1904 93.9087 29.5279 93.9087 32.5248C93.9087 35.5045 96.4055 37.8232 99.1363 37.8232C100.438 37.8232 101.465 37.2561 102.003 36.6154H102.083V37.3779C102.083 39.4107 100.97 40.5029 99.1731 40.5029C97.7084 40.5029 96.7997 39.4717 96.4247 38.6045L94.3398 39.4529C94.9408 40.8623 96.5321 42.5967 99.1731 42.5967C101.984 42.5967 104.356 40.9842 104.356 37.0607V27.5139H102.083V28.3748ZM99.3414 35.7295C97.6892 35.7295 96.3061 34.3811 96.3061 32.5248C96.3061 30.6514 97.6892 29.2842 99.3414 29.2842C100.97 29.2842 102.253 30.6514 102.253 32.5248C102.253 34.3811 100.97 35.7295 99.3414 35.7295ZM130.598 21.8748H124.864V37.4998H127.255V31.5795H130.598C133.253 31.5795 135.857 29.7061 135.857 26.7264C135.857 23.7482 133.247 21.8748 130.598 21.8748ZM130.66 29.4061H127.255V24.0482H130.66C132.446 24.0482 133.465 25.4936 133.465 26.7264C133.465 27.9357 132.446 29.4061 130.66 29.4061ZM145.441 27.1607C143.713 27.1607 141.917 27.9045 141.178 29.5529L143.3 30.4201C143.756 29.5529 144.596 29.2717 145.484 29.2717C146.724 29.2717 147.982 29.9982 148.002 31.2811V31.4451C147.569 31.2014 146.643 30.8404 145.503 30.8404C143.218 30.8404 140.889 32.067 140.889 34.3561C140.889 36.4498 142.761 37.7982 144.865 37.7982C146.474 37.7982 147.362 37.0904 147.92 36.267H148.002V37.4748H150.311V31.4811C150.311 28.7107 148.189 27.1607 145.441 27.1607ZM145.152 35.7232C144.37 35.7232 143.28 35.3451 143.28 34.3998C143.28 33.1904 144.639 32.7264 145.816 32.7264C146.869 32.7264 147.362 32.9529 148.002 33.2514C147.814 34.6982 146.537 35.7232 145.152 35.7232ZM158.724 27.5029L155.976 34.2764H155.894L153.053 27.5029H150.474L154.744 36.9686L152.308 42.2357H154.806L161.385 27.5029H158.724ZM137.172 37.4998H139.569V21.8748H137.172V37.4998Z" fill="white"/>
<defs>
<linearGradient id="paint0_linear_45_12448" x1="28.0253" y1="39.1127" x2="7.05399" y2="17.6037" gradientUnits="userSpaceOnUse">
<stop stop-color="#00A0FF"/>
<stop offset="0.0066" stop-color="#00A1FF"/>
<stop offset="0.2601" stop-color="#00BEFF"/>
<stop offset="0.5122" stop-color="#00D2FF"/>
<stop offset="0.7604" stop-color="#00DFFF"/>
<stop offset="1" stop-color="#00E3FF"/>
</linearGradient>
<linearGradient id="paint1_linear_45_12448" x1="43.4543" y1="24.9981" x2="12.4326" y2="24.9981" gradientUnits="userSpaceOnUse">
<stop stop-color="#FFE000"/>
<stop offset="0.4087" stop-color="#FFBD00"/>
<stop offset="0.7754" stop-color="#FFA500"/>
<stop offset="1" stop-color="#FF9C00"/>
</linearGradient>
<linearGradient id="paint2_linear_45_12448" x1="31.9064" y1="22.1298" x2="3.4676" y2="-7.03817" gradientUnits="userSpaceOnUse">
<stop stop-color="#FF3A44"/>
<stop offset="1" stop-color="#C31162"/>
</linearGradient>
<linearGradient id="paint3_linear_45_12448" x1="9.43239" y1="49.7798" x2="22.1316" y2="36.7551" gradientUnits="userSpaceOnUse">
<stop stop-color="#32A071"/>
<stop offset="0.0685" stop-color="#2DA771"/>
<stop offset="0.4762" stop-color="#15CF74"/>
<stop offset="0.8009" stop-color="#06E775"/>
<stop offset="1" stop-color="#00F076"/>
</linearGradient>
</defs>
</svg>
