<svg width="40" height="40" viewBox="0 0 40 40" fill="none" xmlns="http://www.w3.org/2000/svg">
<path fill-rule="evenodd" clip-rule="evenodd" d="M21.5215 32.9503H6.21763C6.13692 32.9503 6.05926 32.9184 6.00291 32.862C5.94505 32.8042 5.91307 32.7265 5.91307 32.6458V30.4378C5.91307 29.1739 6.81608 28.0592 8.20789 27.1105C10.6931 25.4157 14.7147 24.3467 19.2374 24.3467C19.8678 24.3467 20.3794 23.835 20.3794 23.2046C20.3794 22.5742 19.8678 22.0625 19.2374 22.0625C14.1787 22.0625 9.70021 23.3279 6.91962 25.2238C4.7984 26.6704 3.62891 28.5084 3.62891 30.4378V32.6458C3.62891 33.3326 3.90148 33.9919 4.38725 34.4762C4.87301 34.9619 5.53085 35.2345 6.21763 35.2345H21.5215C22.152 35.2345 22.6636 34.7229 22.6636 34.0924C22.6636 33.462 22.152 32.9503 21.5215 32.9503Z" fill="white"/>
<path fill-rule="evenodd" clip-rule="evenodd" d="M19.2385 4C14.6154 4 10.8633 7.75212 10.8633 12.3753C10.8633 16.9969 14.6154 20.7505 19.2385 20.7505C23.8617 20.7505 27.6138 16.9969 27.6138 12.3753C27.6138 7.75212 23.8617 4 19.2385 4ZM19.2385 6.28416C22.6008 6.28416 25.3297 9.01298 25.3297 12.3753C25.3297 15.736 22.6008 18.4664 19.2385 18.4664C15.8763 18.4664 13.1474 15.736 13.1474 12.3753C13.1474 9.01298 15.8763 6.28416 19.2385 6.28416Z" fill="white"/>
<path fill-rule="evenodd" clip-rule="evenodd" d="M27.5653 35.6646C27.7785 35.8778 28.0694 35.9981 28.3724 35.9981C28.6754 35.9981 28.9663 35.8778 29.1795 35.6646L34.8579 29.9862C36.8695 27.9746 36.8695 24.7067 34.8579 22.6936C33.096 20.9333 30.3733 20.7125 28.3724 22.0342C26.3715 20.7125 23.6487 20.9333 21.8869 22.6936C19.8829 24.6991 19.8753 27.9487 21.864 29.9633L27.5653 35.6646ZM28.3724 33.2419L23.4873 28.3568C22.3818 27.2345 22.3864 25.4255 23.5026 24.3093C24.6233 23.1885 26.4446 23.1885 27.5653 24.3093C28.0115 24.7554 28.7333 24.7554 29.1795 24.3093C30.3017 23.1885 32.1215 23.1885 33.2422 24.3093C34.363 25.43 34.363 27.2497 33.2422 28.372L28.3724 33.2419Z" fill="white"/>
</svg>
